# xmcd
#
# Track frame offsets:
# 150
# 26517
# 44945
# 63387
# 86080
# 98991
# 114030
# 138986
#
# Disc length: 2235 seconds
#
#
# Revision: 0
# Processed by: cddbd v1.5.2PL0 Copyright (c) Steve Scherf et al.
# Submitted via: FreeRIP 2.951 
#
DISCID=6908b908
DTITLE=John Mayall - Bottom Line
DYEAR=1979
DGENRE=Blues
TTITLE0=Bottom Line
TTITLE1=Dreamboat
TTITLE2=Desert Flower
TTITLE3=I´m gonna do it
TTITLE4=Revival
TTITLE5=The Game of Love
TTITLE6=Celebration
TTITLE7=Come with me
EXTD=
EXTT0=
EXTT1=
EXTT2=
EXTT3=
EXTT4=
EXTT5=
EXTT6=
EXTT7=
PLAYORDER=
